<?xml version="1.0" encoding="UTF-8" standalone="no"?>
<!DOCTYPE svg PUBLIC "-//W3C//DTD SVG 1.1//EN" "http://www.w3.org/Graphics/SVG/1.1/DTD/svg11.dtd">
<!-- Created with Vectornator (http://vectornator.io/) -->
<svg height="768.0px" stroke-miterlimit="10" style="fill-rule:nonzero;clip-rule:evenodd;stroke-linecap:round;stroke-linejoin:round;" version="1.1" viewBox="0 0 1024 768" width="1024.0px" xml:space="preserve" xmlns="http://www.w3.org/2000/svg" xmlns:xlink="http://www.w3.org/1999/xlink">
<defs/>
<g id="レイヤー-1-コピー">
<g opacity="0.99393">
<g opacity="1">
<path d="M699.808 232.951C731.33 181.071 642.447 211.764 599.927 232.951C557.407 254.138 509.37 297.821 522.013 330.519C534.655 363.217 603.19 371.983 645.71 350.796C688.231 329.61 668.287 284.832 699.808 232.951Z" fill="#ddbcff" fill-rule="nonzero" opacity="1" stroke="none"/>
</g>
</g>
<path d="M355.877 458.766C355.877 415.666 392.399 380.727 436.116 380.727C479.833 380.727 480.63 372.653 480.63 415.753C480.63 458.852 424.967 519.898 381.251 519.898C364.247 519.898 347.842 519.898 353.674 512.288C355.414 510.018 355.877 485.102 355.877 458.766Z" fill="#ddbcff" fill-rule="nonzero" opacity="0.99393" stroke="none"/>
<g opacity="1">
<g opacity="1">
<path d="M300.777 232.951C269.255 181.071 358.138 211.764 400.658 232.951C443.178 254.138 491.215 297.821 478.572 330.519C465.93 363.217 397.395 371.983 354.875 350.796C312.354 329.61 332.298 284.832 300.777 232.951Z" fill="#ddbcff" fill-rule="nonzero" opacity="1" stroke="none"/>
</g>
</g>
<path d="M343.207 516.486C360.479 516.486 368.045 480.972 370.655 483.994C373.265 487.016 380.532 485.225 362.014 511.512C343.495 537.8 333.393 526.68 333.393 526.68C333.393 526.68 325.935 516.486 343.207 516.486Z" fill="#ddbcff" fill-rule="nonzero" opacity="1" stroke="none"/>
<g opacity="1">
<path d="M660.627 516.486C643.355 516.486 635.79 480.972 633.18 483.994C630.569 487.016 623.302 485.225 641.821 511.512C660.34 537.8 670.442 526.68 670.442 526.68C670.442 526.68 677.9 516.486 660.627 516.486Z" fill="#ddbcff" fill-rule="nonzero" opacity="1" stroke="none"/>
<path d="M647.958 458.766C647.958 415.666 611.436 380.727 567.719 380.727C524.002 380.727 523.205 372.653 523.205 415.753C523.205 458.852 578.867 519.898 622.584 519.898C639.587 519.898 655.993 519.898 650.16 512.288C648.42 510.018 647.958 485.102 647.958 458.766Z" fill="#ddbcff" fill-rule="nonzero" opacity="0.99393" stroke="none"/>
</g>
</g>
<g id="レイヤー-3" visibility="hidden">
<g opacity="1">
<path d="M449.984 595.874C445.671 593.53 443.936 592.311 442.061 590.107C440.279 588.044 438.638 585.606 437.466 583.075C441.967 579.793 442.342 579.511 445.671 576.745C447.124 576.745 447.781 576.558 447.781 576.136C447.781 575.573 446.749 574.963 443.186 573.557C441.92 576.511 440.373 578.761 437.138 582.324C436.013 579.652 435.684 578.199 435.075 573.932C436.153 572.901 436.153 572.901 438.216 570.791C440.232 570.509 440.232 570.509 440.467 570.369C440.56 570.228 440.654 570.087 440.654 569.947C440.654 569.478 440.467 569.384 436.059 567.931C435.309 569.431 434.653 570.369 432.59 572.901C429.449 576.698 426.87 579.089 422.604 582.184L422.979 582.84C425.745 581.293 426.87 580.59 428.839 579.23L428.839 590.295C428.839 593.436 428.839 593.67 428.652 597.703C428.652 598.218 428.605 599.203 428.558 600.328C428.605 600.609 428.745 600.703 429.214 600.703C431.371 600.703 431.98 600.516 431.98 599.906C431.98 599.812 431.98 599.719 431.98 599.625C431.84 597.046 431.84 595.921 431.84 593.67L431.84 590.295L431.887 576.886C432.778 576.136 433.199 575.76 434.137 574.87C434.278 576.042 434.372 576.839 434.465 577.261C435.262 582.84 436.716 586.825 439.576 591.514C441.451 594.514 442.998 596.39 445.624 598.781C446.843 597.046 447.64 596.577 449.891 596.39L449.984 595.874ZM415.946 566.852L415.946 560.382C417.352 559.913 418.056 559.491 418.056 559.21C418.056 558.648 417.165 558.46 412.758 558.038C412.805 559.491 412.805 560.195 412.805 561.086L412.805 566.852L409.945 566.852C408.116 566.712 406.897 566.571 406.241 566.477L406.756 568.259C408.163 567.978 408.866 567.931 409.991 567.931L411.726 567.931C411.492 576.042 411.445 576.886 411.023 580.683C410.085 588.982 408.585 593.717 405.022 599.297L405.584 599.672C407.225 598.125 407.882 597.374 408.726 596.109C410.554 593.342 412.101 589.638 412.945 585.794C413.602 582.887 414.117 579.511 414.399 575.667L419.603 575.667C419.415 583.262 418.712 591.045 417.868 593.811C417.54 594.983 417.352 595.218 416.696 595.218C416.555 595.218 415.946 595.171 415.524 595.124C412.711 594.843 412.711 594.843 410.648 594.702L410.648 595.405C413.602 596.155 413.836 596.249 414.399 596.671C415.008 597.14 415.243 597.703 415.43 598.968C420.494 598.171 421.009 597.046 422.041 584.387C422.416 580.168 422.604 577.636 422.697 576.698C422.979 576.464 423.166 576.276 423.307 576.182C423.494 576.042 423.635 575.901 423.729 575.854C423.869 575.714 424.01 575.479 424.01 575.339C424.01 575.151 423.823 574.917 423.401 574.588C422.182 573.744 421.806 573.463 420.587 572.713C420.072 573.557 419.884 573.838 419.415 574.588L414.446 574.588C414.633 571.635 414.633 571.4 414.727 567.931L424.198 567.931C424.432 567.931 424.62 567.79 424.62 567.603C424.62 567.556 424.526 567.415 424.385 567.321C422.791 566.008 422.275 565.586 420.775 564.367C419.837 565.446 419.556 565.774 418.712 566.852L415.946 566.852ZM428.886 565.915C430.058 563.946 430.621 562.914 431.84 560.335C433.903 560.007 434.184 559.913 434.184 559.491C434.184 558.976 433.434 558.741 428.839 557.71C427.902 562.773 425.979 567.368 422.322 572.994L422.838 573.322C425.229 571.26 426.261 570.041 428.23 566.993L448.625 566.993C448.812 566.993 449 566.852 449 566.712C449 566.665 448.953 566.477 448.812 566.337C447.077 564.743 446.515 564.274 444.639 562.82C443.467 564.133 443.139 564.555 442.014 565.915L428.886 565.915Z" fill="#ddbcff" fill-rule="nonzero" opacity="1" stroke="none"/>
<path d="M494.572 586.169L494.994 586.169C495.087 586.169 495.228 586.028 495.228 585.888C495.228 585.841 495.087 585.653 494.9 585.419C493.118 583.965 492.603 583.496 490.774 582.184C489.649 583.403 489.274 583.778 488.242 585.091L475.021 585.091C475.208 584.247 475.255 583.778 475.443 582.324C476.521 582.184 477.037 581.902 477.037 581.48C477.037 581.012 476.287 580.777 471.833 580.121C471.879 580.777 471.926 581.246 471.926 581.574C471.926 582.653 471.786 583.543 471.411 585.091L459.08 585.091C457.908 585.091 455.704 584.903 454.11 584.622L454.579 586.45C456.783 586.216 457.627 586.169 459.127 586.169L471.082 586.169C470.004 589.216 468.363 591.467 465.691 593.764C462.362 596.53 458.236 598.406 453.032 599.578L453.266 600.234C460.908 599.344 466.253 597.187 470.145 593.53C472.301 591.467 473.661 589.31 474.599 586.45C476.849 590.857 479.381 593.67 483.179 596.015C486.273 597.89 488.758 598.875 493.118 599.812C493.681 597.796 494.431 596.952 496.353 596.343L496.353 595.733C489.368 595.171 485.757 594.28 481.819 592.076C478.959 590.529 477.459 589.076 475.537 586.169L494.572 586.169ZM469.02 564.743C469.676 563.946 469.957 563.242 469.957 562.445C469.957 561.554 469.535 560.992 468.41 560.101C467.144 559.116 465.925 558.413 464.05 557.616L463.628 558.085C465.222 559.726 466.535 561.648 467.191 563.383C467.566 564.461 467.566 564.461 467.801 564.743L460.299 564.743C459.08 564.743 457.017 564.508 455.845 564.274L456.173 566.055C457.251 565.915 457.251 565.915 460.58 565.821L472.255 565.821L472.255 571.635L463.3 571.635C461.705 571.635 460.299 571.494 458.892 571.213L459.221 572.994C460.533 572.76 461.284 572.713 463.3 572.713L472.255 572.713L472.255 578.386L458.377 578.386C456.595 578.386 455.235 578.245 453.548 577.917L453.876 579.793C454.907 579.652 454.907 579.652 455.798 579.605L458.377 579.464L495.087 579.464C495.416 579.464 495.697 579.324 495.697 579.136C495.697 578.996 495.603 578.855 495.322 578.62C493.681 577.261 493.118 576.886 491.337 575.573C490.54 576.511 489.743 577.448 488.899 578.386L475.443 578.386L475.443 572.713L490.68 572.713C491.055 572.713 491.337 572.572 491.337 572.338C491.337 572.291 491.196 572.103 491.055 571.963C489.368 570.556 488.852 570.134 487.164 568.775C486.039 569.947 485.711 570.369 484.679 571.635L475.443 571.635L475.443 565.821L493.681 565.821C494.009 565.821 494.244 565.727 494.244 565.54C494.244 565.446 494.15 565.258 494.056 565.118C492.321 563.664 491.806 563.242 490.071 561.883C488.899 563.055 488.571 563.477 487.445 564.743L478.303 564.743C479.897 563.617 482.007 561.836 483.554 560.335C485.289 560.242 485.898 560.054 485.898 559.585C485.898 559.163 484.96 558.788 480.881 557.522C480.225 559.491 478.303 562.961 476.99 564.743L469.02 564.743Z" fill="#ddbcff" fill-rule="nonzero" opacity="1" stroke="none"/>
<path d="M507.746 584.294C507.7 594.28 507.7 594.936 507.512 599.156C507.559 599.625 507.7 599.766 508.215 599.766C509.434 599.766 510.747 599.578 511.028 599.344C511.122 599.25 511.169 599.156 511.169 598.922L511.169 595.733L531.517 595.733L531.517 598.922C531.517 598.922 531.517 598.968 531.517 599.015C531.517 599.297 531.658 599.344 532.314 599.344C533.158 599.344 534.565 599.156 534.846 599.015C535.08 598.922 535.221 598.734 535.221 598.5C535.221 598.5 535.221 598.406 535.221 598.359C534.987 589.029 534.893 582.559 534.893 578.949L534.94 564.086C536.112 563.43 536.534 563.055 536.534 562.773C536.534 562.633 536.393 562.445 536.018 562.164C534.752 561.226 534.33 560.945 533.017 560.054C532.173 560.945 531.939 561.226 531.095 562.164L511.45 562.164C509.856 561.086 509.34 560.757 507.7 559.82C507.793 562.914 507.84 564.086 507.84 567.556L507.746 584.294ZM531.517 577.964L511.169 577.964L511.169 563.242L531.517 563.242L531.517 577.964ZM531.517 579.042L531.517 594.655L511.169 594.655L511.169 579.042L531.517 579.042Z" fill="#ddbcff" fill-rule="nonzero" opacity="1" stroke="none"/>
<path d="M549.333 562.398C551.209 562.305 551.912 562.258 552.662 562.258L565.555 562.258C565.93 562.258 566.165 562.164 566.165 561.929C566.165 561.883 566.118 561.695 565.977 561.554C564.43 560.054 563.914 559.632 562.273 558.319C561.101 559.491 560.726 559.867 559.601 561.179L552.709 561.179C551.631 561.179 550.646 561.086 549.005 560.804L549.333 562.398ZM547.505 568.634C549.333 568.54 550.224 568.493 551.443 568.493L567.993 568.493C568.369 568.493 568.556 568.353 568.556 568.165C568.556 568.024 568.462 567.884 568.322 567.696C566.821 566.243 566.352 565.821 564.665 564.414C563.492 565.68 563.164 566.055 562.039 567.415L551.443 567.415C550.224 567.415 548.864 567.274 547.223 566.899L547.505 568.634ZM549.38 575.01C551.49 574.87 552.709 574.823 552.943 574.823L565.227 574.823C565.509 574.823 565.743 574.729 565.743 574.541C565.743 574.448 565.649 574.26 565.555 574.12C564.055 572.619 563.586 572.197 561.898 570.838C561.101 571.775 560.304 572.713 559.414 573.744L552.943 573.744C552.006 573.744 550.365 573.51 549.099 573.229L549.38 575.01ZM549.474 581.34C551.209 581.152 551.912 581.105 552.662 581.105L565.04 581.105C565.509 581.105 565.649 581.012 565.649 580.824C565.649 580.73 565.555 580.59 565.415 580.402C563.821 579.042 563.352 578.667 561.664 577.308C560.539 578.433 560.211 578.808 559.132 580.027L552.662 580.027C551.959 580.027 550.177 579.839 549.193 579.605L549.474 581.34ZM552.662 597.796L560.445 597.796L560.445 599.25C560.492 599.672 560.633 599.766 561.289 599.766C561.992 599.766 562.649 599.672 563.117 599.484C563.446 599.344 563.586 599.156 563.586 598.687C563.539 597.187 563.492 596.249 563.492 594.936L563.492 588.232C564.43 587.622 564.758 587.341 564.758 587.06C564.758 586.872 564.665 586.685 564.336 586.356C563.305 585.513 562.93 585.278 561.805 584.387C561.054 585.231 560.82 585.466 560.164 586.356L553.225 586.356C551.678 585.325 551.209 584.997 549.521 584.153C549.568 585.044 549.615 590.623 549.615 593.108C549.615 593.342 549.568 595.593 549.474 599.859C549.474 600.375 549.661 600.563 550.224 600.563C552.146 600.563 552.568 600.422 552.662 599.719L552.662 597.796ZM552.662 587.435L560.445 587.435L560.445 596.718L552.662 596.718L552.662 587.435ZM568.744 563.195C570.15 562.961 570.807 562.914 572.588 562.914L583.09 562.914L583.09 576.229L572.869 576.229C571.088 575.01 570.525 574.729 568.697 573.744C568.79 575.854 568.837 576.792 568.837 578.855L568.837 589.076C568.837 590.623 568.837 590.857 568.79 595.827C568.79 597.374 569.166 598.031 570.197 598.5C571.135 598.922 571.697 598.968 578.636 598.968C583.231 598.968 586.841 598.875 587.919 598.734C589.467 598.547 590.264 598.031 590.264 597.234C590.264 596.624 589.936 596.296 589.045 596.062C588.341 595.921 588.107 595.593 588.107 594.936C588.107 594.89 588.107 594.796 588.107 594.749L588.717 585.559L588.06 585.466C586.185 592.451 585.575 594.468 585.013 595.452C584.591 596.249 584.075 596.296 578.261 596.296C575.167 596.296 572.963 596.249 572.588 596.109C572.166 595.968 572.026 595.733 572.026 594.983L572.026 577.308L583.09 577.308L583.09 580.027C583.137 580.449 583.325 580.637 583.794 580.637C583.841 580.637 583.887 580.637 583.934 580.637C584.028 580.637 584.356 580.59 584.825 580.59C586.138 580.543 586.56 580.308 586.607 579.605C586.513 576.979 586.466 572.432 586.466 567.368C586.466 566.712 586.466 565.633 586.513 563.852C587.826 563.477 588.295 563.242 588.295 562.82C588.295 562.68 588.248 562.586 587.873 562.164C586.794 561.039 586.419 560.664 585.06 559.538C583.981 560.476 583.653 560.804 582.622 561.836L572.588 561.836C570.947 561.836 569.916 561.695 568.369 561.367L568.744 563.195Z" fill="#ddbcff" fill-rule="nonzero" opacity="1" stroke="none"/>
</g>
</g>
<g id="レイヤー-4">
<g fill="#ddbcff" opacity="1" stroke="none">
<path d="M425.863 558.42L425.863 607L417.321 607L417.321 558.42L404.305 558.42L404.305 550.391L438.842 550.391L438.842 558.42L425.863 558.42Z"/>
<path d="M446.469 607L446.469 550.391L454.975 550.391C458.763 550.391 461.782 550.684 464.031 551.271C466.304 551.857 468.223 552.847 469.787 554.241C471.376 555.683 472.635 557.479 473.563 559.63C474.517 561.806 474.993 564.005 474.993 566.23C474.993 570.287 473.441 573.721 470.337 576.532C473.343 577.559 475.714 579.356 477.45 581.922C479.21 584.464 480.09 587.422 480.09 590.795C480.09 595.219 478.525 598.959 475.397 602.014C473.515 603.896 471.4 605.204 469.054 605.937C466.487 606.646 463.273 607 459.411 607L446.469 607ZM455.011 574.699L457.688 574.699C460.865 574.699 463.194 573.996 464.672 572.591C466.151 571.186 466.891 569.114 466.891 566.376C466.891 563.712 466.133 561.69 464.617 560.308C463.102 558.927 460.902 558.237 458.018 558.237L455.011 558.237L455.011 574.699ZM455.011 598.971L460.291 598.971C464.153 598.971 466.988 598.213 468.797 596.698C470.704 595.06 471.657 592.982 471.657 590.465C471.657 588.02 470.74 585.967 468.907 584.305C467.123 582.668 463.933 581.849 459.338 581.849L455.011 581.849L455.011 598.971Z"/>
<path d="M490.869 607L490.869 546.541L532.153 589.731L532.153 550.391L540.695 550.391L540.695 610.447L499.412 567.366L499.412 607L490.869 607Z"/>
<path d="M562.804 572.976L584.839 550.391L596.242 550.391L570.65 576.019L596.388 607L584.949 607L564.564 581.812L562.804 583.572L562.804 607L554.261 607L554.261 550.391L562.804 550.391L562.804 572.976Z"/>
</g>
</g>
<g id="レイヤー-1"/>
<g id="レイヤー-2-コピー">
<path d="M551.261 421.436L497.815 383.228L440.017 414.464L478.225 361.018L446.989 303.22L500.435 341.428L558.233 310.192L520.025 363.638L551.261 421.436Z" fill="#cc9aff" fill-rule="nonzero" opacity="1" stroke="none"/>
<path d="M478.019 361.272L499.135 362.345L440.027 414.482L478.019 361.272Z" fill="#b494f9" fill-rule="nonzero" opacity="1" stroke="none"/>
<path d="M499.103 362.334L500.347 341.546L446.971 303.23L499.103 362.334Z" fill="#b494f9" fill-rule="nonzero" opacity="1" stroke="none"/>
<path d="M499.11 362.306L519.851 363.623L558.219 310.17" fill="#b494f9" fill-rule="nonzero" opacity="1" stroke="none"/>
<path d="M499.142 362.318L497.76 383.14L551.279 421.426" fill="#b494f9" fill-rule="nonzero" opacity="1" stroke="none"/>
</g>
<g id="レイヤー-2">
<path d="M499.125 491.582L474.841 386.612L369.871 362.328L474.841 338.044L499.125 233.074L523.409 338.044L628.379 362.328L523.409 386.612L499.125 491.582Z" fill="#cc9aff" fill-rule="nonzero" opacity="1" stroke="none"/>
<path d="M474.319 338.1L499.125 362.328L369.871 362.328L474.319 338.1Z" fill="#b494f9" fill-rule="nonzero" opacity="1" stroke="none"/>
<path d="M499.125 362.318L523.205 338.1L499.125 233.074L499.125 362.318Z" fill="#b494f9" fill-rule="nonzero" opacity="1" stroke="none"/>
<path d="M499.125 362.318L523.205 386.437L628.379 362.318" fill="#b494f9" fill-rule="nonzero" opacity="1" stroke="none"/>
<path d="M499.125 362.328L523.205 386.437" fill="#b494f9" fill-rule="nonzero" opacity="1" stroke="none"/>
<path d="M499.125 362.328L474.837 386.437L499.125 491.582" fill="#b494f9" fill-rule="nonzero" opacity="1" stroke="none"/>
</g>
</svg>
